<?xml version="1.0" encoding="UTF-8" standalone="no"?>
<svg
   width="644"
   height="320"
   viewBox="0 0 644 320"
   fill="none"
   version="1.1"
   id="svg17"
   sodipodi:docname="Regular.svg"
   inkscape:version="1.3.2 (091e20ef0f, 2023-11-25, custom)"
   xmlns:inkscape="http://www.inkscape.org/namespaces/inkscape"
   xmlns:sodipodi="http://sodipodi.sourceforge.net/DTD/sodipodi-0.dtd"
   xmlns="http://www.w3.org/2000/svg"
   xmlns:svg="http://www.w3.org/2000/svg">
  <sodipodi:namedview
     id="namedview17"
     pagecolor="#ffffff"
     bordercolor="#000000"
     borderopacity="0.25"
     inkscape:showpageshadow="2"
     inkscape:pageopacity="0.0"
     inkscape:pagecheckerboard="0"
     inkscape:deskcolor="#d1d1d1"
     inkscape:zoom="1.8276398"
     inkscape:cx="324.18862"
     inkscape:cy="154.84452"
     inkscape:window-width="1680"
     inkscape:window-height="974"
     inkscape:window-x="0"
     inkscape:window-y="0"
     inkscape:window-maximized="1"
     inkscape:current-layer="g16" />
  <g
     clip-path="url(#clip0_235_428)"
     id="g16">
    <g
       clip-path="url(#clip1_235_428)"
       id="g12">
      <path
         d="M470.856 70.2624L471.695 66.2882L500.786 64.2527L465.541 232.625L461.627 232.898L496.034 68.5036L470.856 70.2624ZM477.569 246.606L518.968 48.1565L459.951 52.2825L452.682 86.9238L477.855 85.1628L443.731 248.98L477.569 246.606Z"
         fill="#4556BF"
         id="path1"
         style="stroke:#000000;stroke-opacity:1" />
      <path
         d="M616.856 56.1173L596.85 151.693L623.952 149.833L623.065 154.099L595.956 155.959L581.614 224.484L577.348 224.778L591.701 156.254L527.367 160.708L616.856 56.1173ZM509.463 176.786L573.797 172.332L559.515 240.856L593.36 238.489L607.644 170.004L634.947 168.131L642.115 133.735L614.818 135.609L634.752 40.0388L608.957 41.938L514.478 152.881L509.463 176.786Z"
         fill="#4556BF"
         id="path2"
         style="stroke:#000000;stroke-opacity:1" />
      <path
         d="M61.4784 228.235L34.6954 230.106L37.9451 214.634L50.0465 213.787L47.9182 224.023L62.5997 222.999L67.8654 197.859L26.401 200.754L16.9905 246.026L43.7734 244.154L39.4007 264.638L27.4095 265.477L30.1004 252.85L15.3081 253.882L9.47998 281.415L50.9443 278.519L61.4784 228.235Z"
         fill="#D5D5D5"
         id="path3"
         style="stroke:#000000;stroke-opacity:1" />
      <path
         d="M82.5498 211.544L96.6696 210.558L82.8864 276.31L97.5667 275.28L111.352 209.528L125.471 208.542L128.608 193.637L85.688 196.639L82.5498 211.544Z"
         fill="#D5D5D5"
         id="path4"
         style="stroke:#000000;stroke-opacity:1" />
      <path
         d="M154.831 221.502L157.969 206.263L169.96 205.424L166.82 220.664L154.831 221.502ZM170.855 270.149L187.779 189.494L146.426 192.388L129.504 273.044L144.184 272.014L151.692 236.517L163.683 235.677L156.175 271.176L170.855 270.149Z"
         fill="#D5D5D5"
         id="path5"
         style="stroke:#000000;stroke-opacity:1" />
      <path
         d="M219.346 266.879L233.131 201.127L247.251 200.136L250.39 185.234L207.469 188.237L204.332 203.138L218.451 202.152L204.667 267.904L219.346 266.879Z"
         fill="#D5D5D5"
         id="path6"
         style="stroke:#000000;stroke-opacity:1" />
      <path
         d="M251.262 264.672L265.941 263.648L282.864 182.993L268.183 184.023L251.262 264.672Z"
         fill="#D5D5D5"
         id="path7"
         style="stroke:#000000;stroke-opacity:1" />
      <path
         d="M314.108 195.588L326.099 194.748L315.451 245.6L303.461 246.439L314.108 195.588ZM285.643 262.364L326.994 259.476L343.916 178.821L302.563 181.709L285.643 262.364Z"
         fill="#D5D5D5"
         id="path8"
         style="stroke:#000000;stroke-opacity:1" />
      <path
         d="M361.398 257.204L369.128 220.568L375.851 256.191L388.627 255.297L405.551 174.642L390.871 175.672L383.137 212.865L376.414 176.681L363.638 177.574L346.72 258.23L361.398 257.204Z"
         fill="#D5D5D5"
         id="path9"
         style="stroke:#000000;stroke-opacity:1" />
      <path
         d="M58.3615 41.3498L56.792 49.0759L134.512 43.7317L642.093 8.82915L643.759 0.970703L136.088 35.9885L58.3615 41.3498Z"
         fill="#4556BF"
         id="path10"
         style="stroke:#000000;stroke-opacity:1" />
      <path
         d="M0.759277 320.008L586.061 279.759L587.726 271.901L2.31171 312.28L0.759277 320.008Z"
         fill="#4556BF"
         id="path11"
         style="stroke:#000000;stroke-opacity:1" />
      <path
         d="M609.389 71.5637L536.547 155.84L592.627 151.992L609.389 71.5637ZM588.216 112.741L582.395 140.669L562.509 142.034L588.216 112.741Z"
         fill="#4556BF"
         id="path12"
         style="stroke:#000000;stroke-opacity:1" />
    </g>
    <path
       d="M72.5145 81.0927L48.9595 179.41L112.226 175.549L128.301 108.322L101.053 109.885L96.5087 129.88L101.267 129.609L94.5936 157.032L76.2767 158.17L92.326 90.4102L112.799 89.1564L133.272 87.9025L138.047 67.7255L53.7356 72.6708L72.5145 81.0927Z"
       fill="white"
       id="path13"
       style="stroke:#000000;stroke-opacity:1;fill:#4556bf;fill-opacity:1" />
    <path
       fill-rule="evenodd"
       clip-rule="evenodd"
       d="M143.94 173.745L167.495 75.4272L169.773 65.9398L233.028 62.0601L223.281 102.657L207.207 169.883L143.94 173.745ZM171.144 152.433L187.898 151.448L192.693 130.904L204.148 83.4486L187.381 84.4541L171.144 152.433Z"
       fill="white"
       id="path14"
       style="stroke:#000000;stroke-opacity:1;fill:#4556bf;fill-opacity:1" />
    <path
       fill-rule="evenodd"
       clip-rule="evenodd"
       d="M235.608 168.105L259.163 69.7875L261.441 60.3001L324.696 56.4203L314.949 97.0173L298.875 164.243L235.608 168.105ZM262.812 146.793L279.566 145.809L284.361 125.264L295.815 77.8088L279.049 78.8143L262.812 146.793Z"
       fill="white"
       id="path15"
       style="stroke:#000000;stroke-opacity:1;fill:#4556bf;fill-opacity:1" />
    <path
       fill-rule="evenodd"
       clip-rule="evenodd"
       d="M419.676 50.7314L356.421 54.6112L330.589 162.416L393.855 158.555L419.676 50.7314ZM374.547 140.12L357.794 141.104L363.666 117.333L380.431 116.326L374.547 140.12ZM374.032 73.1255L390.798 72.12L384.982 96.4572L368.226 97.4483L374.032 73.1255Z"
       fill="white"
       id="path16"
       style="stroke:#000000;stroke-opacity:1;fill:#4556bf;fill-opacity:1" />
  </g>
  <defs
     id="defs17">
    <clipPath
       id="clip0_235_428">
      <rect
         width="643"
         height="319"
         fill="white"
         transform="translate(0.758789 0.962769)"
         id="rect16" />
    </clipPath>
    <clipPath
       id="clip1_235_428">
      <rect
         width="643"
         height="319"
         fill="white"
         transform="translate(0.758789 0.962769)"
         id="rect17" />
    </clipPath>
  </defs>
</svg>
