<?xml version="1.0" encoding="UTF-8"?>
<svg xmlns="http://www.w3.org/2000/svg" xmlns:xlink="http://www.w3.org/1999/xlink" viewBox="0 0 750.75 188.25">
  <defs>
    <style>
      .cls-1 {
        letter-spacing: .01em;
      }

      .cls-2 {
        fill: #520b00;
        font-family: MinionConceptRoman-Bold, 'Minion Variable Concept';
        font-size: 60px;
        font-variation-settings: 'wght' 700, 'opsz' 11;
        font-weight: 700;
      }

      .cls-3 {
        fill: url(#linear-gradient);
      }

      .cls-3, .cls-4 {
        stroke: #520b00;
        stroke-miterlimit: 10;
        stroke-width: 4px;
      }

      .cls-5 {
        letter-spacing: -.01em;
      }

      .cls-6 {
        fill: #fff;
      }

      .cls-7 {
        letter-spacing: 0em;
      }

      .cls-4 {
        fill: url(#radial-gradient);
      }

      .cls-8 {
        letter-spacing: .02em;
      }

      .cls-9 {
        letter-spacing: .04em;
      }
    </style>
    <linearGradient id="linear-gradient" x1="512.82" y1="197.96" x2="362.73" y2="89.79" gradientUnits="userSpaceOnUse">
      <stop offset="0" stop-color="#000"/>
      <stop offset="1" stop-color="#00263d"/>
    </linearGradient>
    <radialGradient id="radial-gradient" cx="375.38" cy="94.12" fx="375.38" fy="94.12" r="46.57" gradientUnits="userSpaceOnUse">
      <stop offset=".09" stop-color="#fff"/>
      <stop offset=".86" stop-color="#520b00"/>
    </radialGradient>
  </defs>
  <g id="Red_Astra" data-name="Red Astra">
    <circle class="cls-3" cx="375.37" cy="98.9" r="62.37"/>
    <g id="Layer_4" data-name="Layer 4">
      <g>
        <g id="_Radial_Repeat_" data-name="&amp;lt;Radial Repeat&amp;gt;">
          <path class="cls-6" d="M375.19,137.92l-1-2.98-3.14.03c-.59,0-.84-.74-.37-1.09l2.52-1.87-1-2.98c-.19-.56.45-1.03.92-.69l2.56,1.82,2.52-1.87c.47-.35,1.11.11.94.67l-.94,3,2.56,1.82c.48.34.24,1.09-.34,1.1l-3.14.03-.94,3c-.18.56-.96.57-1.15.01Z"/>
        </g>
        <g id="_Radial_Repeat_-2" data-name="&amp;lt;Radial Repeat&amp;gt;">
          <path class="cls-6" d="M338.21,110.78l2.52-1.87-1-2.98c-.19-.56.45-1.03.92-.69l2.56,1.82,2.52-1.87c.47-.35,1.11.11.94.67l-.94,3,2.56,1.82c.48.34.24,1.09-.34,1.1l-3.14.03-.94,3c-.18.56-.96.57-1.15.01l-1-2.98-3.14.03c-.59,0-.84-.74-.37-1.09Z"/>
        </g>
        <g id="_Radial_Repeat_-3" data-name="&amp;lt;Radial Repeat&amp;gt;">
          <path class="cls-6" d="M352.59,67.22l2.56,1.82,2.52-1.87c.47-.35,1.11.11.94.67l-.94,3,2.56,1.82c.48.34.24,1.09-.34,1.1l-3.14.03-.94,3c-.18.56-.96.57-1.15.01l-1-2.98-3.14.03c-.59,0-.84-.74-.37-1.09l2.52-1.87-1-2.98c-.19-.56.45-1.03.92-.69Z"/>
        </g>
        <g id="_Radial_Repeat_-4" data-name="&amp;lt;Radial Repeat&amp;gt;">
          <path class="cls-6" d="M398.46,67.44l-.94,3,2.56,1.82c.48.34.24,1.09-.34,1.1l-3.14.03-.94,3c-.18.56-.96.57-1.15.01l-1-2.98-3.14.03c-.59,0-.84-.74-.37-1.09l2.52-1.87-1-2.98c-.19-.56.45-1.03.92-.69l2.56,1.82,2.52-1.87c.47-.35,1.11.11.94.67Z"/>
        </g>
        <g id="_Radial_Repeat_-5" data-name="&amp;lt;Radial Repeat&amp;gt;">
          <path class="cls-6" d="M412.43,111.13l-3.14.03-.94,3c-.18.56-.96.57-1.15.01l-1-2.98-3.14.03c-.59,0-.84-.74-.37-1.09l2.52-1.87-1-2.98c-.19-.56.45-1.03.92-.69l2.56,1.82,2.52-1.87c.47-.35,1.11.11.94.67l-.94,3,2.56,1.82c.48.34.24,1.09-.34,1.1Z"/>
        </g>
      </g>
      <g>
        <g id="_Radial_Repeat_-6" data-name="&amp;lt;Radial Repeat&amp;gt;">
          <path class="cls-6" d="M356.5,149.54l.1-3.14-2.95-1.07c-.55-.2-.53-.99.04-1.15l3.02-.87.1-3.14c.02-.59.78-.81,1.11-.32l1.76,2.6,3.02-.87c.56-.16,1.01.49.65.95l-1.93,2.48,1.76,2.6c.33.48-.15,1.11-.71.91l-2.95-1.07-1.93,2.48c-.36.46-1.1.2-1.08-.39Z"/>
        </g>
        <g id="_Radial_Repeat_-7" data-name="&amp;lt;Radial Repeat&amp;gt;">
          <path class="cls-6" d="M321.38,96.6l3.02-.87.1-3.14c.02-.59.78-.81,1.11-.32l1.76,2.6,3.02-.87c.56-.16,1.01.49.65.95l-1.93,2.48,1.76,2.6c.33.48-.15,1.11-.71.91l-2.95-1.07-1.93,2.48c-.36.46-1.1.2-1.08-.39l.1-3.14-2.95-1.07c-.55-.2-.53-.99.04-1.15Z"/>
        </g>
        <g id="_Radial_Repeat_-8" data-name="&amp;lt;Radial Repeat&amp;gt;">
          <path class="cls-6" d="M360.88,46.84l1.76,2.6,3.02-.87c.56-.16,1.01.49.65.95l-1.93,2.48,1.76,2.6c.33.48-.15,1.11-.71.91l-2.95-1.07-1.93,2.48c-.36.46-1.1.2-1.08-.39l.1-3.14-2.95-1.07c-.55-.2-.53-.99.04-1.15l3.02-.87.1-3.14c.02-.59.78-.81,1.11-.32Z"/>
        </g>
        <g id="_Radial_Repeat_-9" data-name="&amp;lt;Radial Repeat&amp;gt;">
          <path class="cls-6" d="M420.41,69.02l-1.93,2.48,1.76,2.6c.33.48-.15,1.11-.71.91l-2.95-1.07-1.93,2.48c-.36.46-1.1.2-1.08-.39l.1-3.14-2.95-1.07c-.55-.2-.53-.99.04-1.15l3.02-.87.1-3.14c.02-.59.78-.81,1.11-.32l1.76,2.6,3.02-.87c.56-.16,1.01.49.65.95Z"/>
        </g>
        <g id="_Radial_Repeat_-10" data-name="&amp;lt;Radial Repeat&amp;gt;">
          <path class="cls-6" d="M417.7,132.5l-2.95-1.07-1.93,2.48c-.36.46-1.1.2-1.08-.39l.1-3.14-2.95-1.07c-.55-.2-.53-.99.04-1.15l3.02-.87.1-3.14c.02-.59.78-.81,1.11-.32l1.76,2.6,3.02-.87c.56-.16,1.01.49.65.95l-1.93,2.48,1.76,2.6c.33.48-.15,1.11-.71.91Z"/>
        </g>
      </g>
      <g>
        <g id="_Radial_Repeat_-11" data-name="&amp;lt;Radial Repeat&amp;gt;">
          <path class="cls-6" d="M391.96,149.43l-1.88-2.52-2.97,1.01c-.55.19-1.03-.44-.69-.92l1.81-2.57-1.88-2.52c-.35-.47.1-1.11.66-.94l3,.93,1.81-2.57c.34-.48,1.09-.25,1.1.34l.04,3.14,3,.93c.56.17.57.96.02,1.15l-2.97,1.01.04,3.14c0,.59-.74.84-1.09.37Z"/>
        </g>
        <g id="_Radial_Repeat_-12" data-name="&amp;lt;Radial Repeat&amp;gt;">
          <path class="cls-6" d="M332.44,130.29l1.81-2.57-1.88-2.52c-.35-.47.1-1.11.66-.94l3,.93,1.81-2.57c.34-.48,1.09-.25,1.1.34l.04,3.14,3,.93c.56.17.57.96.02,1.15l-2.97,1.01.04,3.14c0,.59-.74.84-1.09.37l-1.88-2.52-2.97,1.01c-.55.19-1.03-.44-.69-.92Z"/>
        </g>
        <g id="_Radial_Repeat_-13" data-name="&amp;lt;Radial Repeat&amp;gt;">
          <path class="cls-6" d="M332.26,67.77l3,.93,1.81-2.57c.34-.48,1.09-.25,1.1.34l.04,3.14,3,.93c.56.17.57.96.02,1.15l-2.97,1.01.04,3.14c0,.59-.74.84-1.09.37l-1.88-2.52-2.97,1.01c-.55.19-1.03-.44-.69-.92l1.81-2.57-1.88-2.52c-.35-.47.1-1.11.66-.94Z"/>
        </g>
        <g id="_Radial_Repeat_-14" data-name="&amp;lt;Radial Repeat&amp;gt;">
          <path class="cls-6" d="M391.66,48.27l.04,3.14,3,.93c.56.17.57.96.02,1.15l-2.97,1.01.04,3.14c0,.59-.74.84-1.09.37l-1.88-2.52-2.97,1.01c-.55.19-1.03-.44-.69-.92l1.81-2.57-1.88-2.52c-.35-.47.1-1.11.66-.94l3,.93,1.81-2.57c.34-.48,1.09-.25,1.1.34Z"/>
        </g>
        <g id="_Radial_Repeat_-15" data-name="&amp;lt;Radial Repeat&amp;gt;">
          <path class="cls-6" d="M428.56,98.74l-2.97,1.01.04,3.14c0,.59-.74.84-1.09.37l-1.88-2.52-2.97,1.01c-.55.19-1.03-.44-.69-.92l1.81-2.57-1.88-2.52c-.35-.47.1-1.11.66-.94l3,.93,1.81-2.57c.34-.48,1.09-.25,1.1.34l.04,3.14,3,.93c.56.17.57.96.02,1.15Z"/>
        </g>
      </g>
    </g>
    <g id="Layer_3" data-name="Layer 3">
      <polygon class="cls-4" points="386.6 83.45 422.93 83.45 393.54 104.8 404.76 139.35 375.38 118 345.99 139.35 357.21 104.8 327.82 83.45 364.15 83.45 375.37 48.9 386.6 83.45"/>
    </g>
  </g>
  <g id="Layer_5" data-name="Layer 5">
    <text class="cls-2" transform="translate(183.71 111.12)"><tspan class="cls-1" x="0" y="0">R</tspan><tspan class="cls-8" x="39.9" y="0">e</tspan><tspan x="67.98" y="0">d</tspan></text>
    <text class="cls-2" transform="translate(469.33 114.56)"><tspan class="cls-9" x="0" y="0">A</tspan><tspan class="cls-5" x="39.54" y="0">s</tspan><tspan class="cls-7" x="62.22" y="0">t</tspan><tspan x="81.9" y="0">ra</tspan></text>
  </g>
</svg>