<?xml version="1.0" encoding="UTF-8" standalone="no"?>
<!-- Created with Inkscape (http://www.inkscape.org/) -->

<svg
   width="226mm"
   height="83mm"
   viewBox="0 0 854.17403 313.70058"
   version="1.1"
   id="svg1"
   xml:space="preserve"
   inkscape:version="1.3.2 (091e20e, 2023-11-25, custom)"
   sodipodi:docname="ouroboros-full-logo.svg"
   xmlns:inkscape="http://www.inkscape.org/namespaces/inkscape"
   xmlns:sodipodi="http://sodipodi.sourceforge.net/DTD/sodipodi-0.dtd"
   xmlns:xlink="http://www.w3.org/1999/xlink"
   xmlns="http://www.w3.org/2000/svg"
   xmlns:svg="http://www.w3.org/2000/svg"><sodipodi:namedview
     id="namedview1"
     pagecolor="#000000"
     bordercolor="#000000"
     borderopacity="0.25"
     inkscape:showpageshadow="2"
     inkscape:pageopacity="0.0"
     inkscape:pagecheckerboard="true"
     inkscape:deskcolor="#d1d1d1"
     inkscape:document-units="mm"
     inkscape:zoom="1.0343948"
     inkscape:cx="333.04497"
     inkscape:cy="179.33191"
     inkscape:window-width="1920"
     inkscape:window-height="1017"
     inkscape:window-x="-8"
     inkscape:window-y="-8"
     inkscape:window-maximized="1"
     inkscape:current-layer="layer1" /><defs
     id="defs1"><linearGradient
       id="linearGradient5"
       inkscape:collect="always"><stop
         style="stop-color:#62511e;stop-opacity:1;"
         offset="0.73049647"
         id="stop6" /><stop
         style="stop-color:#79ce2c;stop-opacity:1;"
         offset="1"
         id="stop5" /></linearGradient><linearGradient
       id="swatch4"
       inkscape:swatch="solid"><stop
         style="stop-color:#000000;stop-opacity:1;"
         offset="0"
         id="stop4" /></linearGradient><radialGradient
       inkscape:collect="always"
       xlink:href="#linearGradient5"
       id="radialGradient6"
       cx="395.53961"
       cy="396.69382"
       fx="395.53961"
       fy="396.69382"
       r="359.20685"
       gradientTransform="matrix(1,0,0,0.99924098,0,0.30109982)"
       gradientUnits="userSpaceOnUse" /></defs><g
     inkscape:label="Layer 1"
     inkscape:groupmode="layer"
     id="layer1"><g
       id="g8"
       transform="translate(-152.74633,-154.67982)"><g
         style="fill:#000000"
         id="g4"
         transform="matrix(0.66592317,0,0,0.66592317,448.85498,157.50583)"><g
           id="g2"
           transform="rotate(70,239.59378,234.63303)">
	<path
   d="M 276.877,24.439 C 266.062,8.435 250.783,0 232.5,0 213.559,0 195.661,9.533 185.009,25.087 136.655,35.614 92.699,62.412 60.957,100.793 28.097,140.526 10,190.852 10,242.5 10,301.932 33.144,357.807 75.169,399.831 117.193,441.855 173.068,465 232.5,465 291.932,465 347.807,441.855 389.831,399.831 431.856,357.807 455,301.932 455,242.5 455,136.573 380.283,45.388 276.877,24.439 Z M 232.5,450 C 118.084,450 25,356.916 25,242.5 25,144.154 94.848,58.634 191.078,39.139 c 0.098,-0.02 0.196,-0.041 0.292,-0.064 v 0 c 0.003,0 0.007,-0.001 0.011,-0.002 0.005,-0.003 0.009,-0.003 0.013,-0.003 0.005,-0.002 0.009,-10e-4 0.015,-0.004 0.004,-0.001 0.01,0.003 0.014,-0.004 0.005,-10e-4 0.008,-0.003 0.014,-0.003 0.005,-10e-4 0.012,0 0.014,-0.004 0.019,-0.005 0.038,-0.009 0.057,-0.015 v 0 c 0.019,-0.005 0.037,-0.01 0.056,-0.015 0.005,0.001 0.008,-0.002 0.013,-0.003 0.004,-0.002 0.008,-0.003 0.011,-0.003 0.004,-10e-4 0.01,0.001 0.011,-0.004 1.785,-0.487 3.392,-1.633 4.428,-3.336 0,-0.001 0.001,-0.002 0.001,-0.003 0.001,-0.003 0.003,-0.005 0.004,-0.007 10e-4,-0.003 0.002,-0.005 0.004,-0.007 0.001,-0.002 0.002,-0.003 0.003,-0.005 0.002,-0.004 0.005,-0.008 0.007,-0.013 C 203.817,22.718 217.444,15 232.5,15 c 10.648,0 19.684,3.906 26.981,11.617 -14.357,5.266 -24.641,19.079 -24.641,35.219 0,13.834 7.489,26.034 18.816,32.532 -6.357,3.671 -13.583,5.632 -21.156,5.632 -11.801,0 -22.773,-4.736 -30.895,-13.335 -1.846,-1.954 -4.598,-2.771 -7.211,-2.142 -34.83,8.402 -66.41,28.556 -88.924,56.747 C 82.597,169.912 70,205.863 70,242.5 70,332.103 142.897,405 232.5,405 322.103,405 395,332.103 395,242.5 c 0,-36.638 -12.596,-72.59 -35.467,-101.234 -22.128,-27.713 -53.017,-47.65 -87.139,-56.302 -0.781,-0.396 -1.641,-0.669 -2.563,-0.771 -11.397,-1.261 -19.992,-10.873 -19.992,-22.357 0,-12.365 10.059,-22.457 22.423,-22.497 0.56,-0.002 1.104,-0.07 1.629,-0.188 C 370.324,58.683 440,143.711 440,242.5 440,356.916 346.916,450 232.5,450 Z M 380,242.5 C 380,323.832 313.832,390 232.5,390 151.168,390 85,323.832 85,242.5 85,175.486 129.582,117.521 193.921,100.126 204.505,109.75 218.041,115 232.5,115 c 14.461,0 28,-5.254 38.585,-14.884 C 335.422,117.511 380,175.479 380,242.5 Z"
   id="path1"
   style="display:inline" />
	<path
   style="display:inline;fill:url(#radialGradient6);stroke:#000000;stroke-width:6;stroke-linecap:round;stroke-miterlimit:0.8;stroke-dasharray:none;stroke-opacity:1;paint-order:stroke fill markers"
   d="M 358.12619,751.19968 C 256.53525,740.13263 166.44217,687.88625 106.24365,605.12906 69.660415,554.83671 46.359766,492.61093 40.378651,429.23264 38.811782,412.62948 39.07291,377.57677 40.889275,360.68862 53.818144,240.47895 123.97729,136.68126 229.64781,81.427825 348.80568,19.122057 495.08627,29.07645 602.19402,106.77959 c 20.10414,14.58489 16.22129,13.0599 33.54642,13.17542 17.72516,0.11819 22.41804,1.13937 36.12314,7.86052 7.80821,3.82923 10.64211,5.92528 18.107,13.39256 10.63999,10.64337 16.09511,20.49193 18.51046,33.41842 1.58658,8.49112 1.54614,17.50396 -0.0767,17.07987 -0.53593,-0.14007 -4.90797,-1.61187 -9.71565,-3.2707 -30.93855,-10.6749 -64.624,2.86018 -79.22816,31.83451 -4.93181,9.78459 -6.41731,16.29643 -6.48681,28.43564 -0.073,12.74352 0.53152,12.41452 -10.78131,5.86804 -10.24285,-5.92731 -21.46224,-17.82587 -27.09872,-28.73914 -6.17954,-11.96472 -8.45216,-21.89394 -8.46083,-36.96581 -0.008,-14.51753 0.0787,-14.38292 -16.34803,-25.28334 -33.43258,-22.18516 -72.27433,-37.02697 -114.71849,-43.83504 -14.94985,-2.39797 -54.98599,-2.94916 -71.89495,-0.9898 -61.84907,7.16689 -118.21222,33.69296 -162.78418,76.61076 -44.75407,43.09314 -72.81038,97.75094 -82.66807,161.04945 -1.83986,11.81422 -2.15834,17.81315 -2.15834,40.65579 0,30.75083 1.50734,43.65718 8.12474,69.56704 21.57408,84.47135 82.49171,155.06318 162.48065,188.28382 105.64078,43.87425 226.08927,20.29874 306.35027,-59.96226 42.80685,-42.80685 69.70829,-96.33558 79.37311,-157.93733 2.12918,-13.57101 3.00438,-51.88617 1.51804,-66.4582 -3.64494,-35.73486 -12.0871,-65.67496 -27.81241,-98.63649 -2.99075,-6.26886 -5.73164,-13.56884 -6.15834,-16.40184 -3.11004,-20.64853 10.83326,-39.76985 31.76852,-43.56614 10.9429,-1.98432 22.73255,1.70269 31.87501,9.96838 3.88392,3.51145 6.17766,6.98504 10.89,16.49161 46.71719,94.24618 49.65067,202.57047 8.10942,299.4553 -39.56531,92.2764 -118.17243,164.5926 -213.93186,196.81088 -23.87534,8.03287 -56.10589,14.78318 -81.36419,17.0408 -15.38074,1.37475 -54.40782,1.07417 -69.15761,-0.53263 z M 650.1354,164.22946 c 3.98396,-2.42917 6.13841,-6.61868 6.13379,-11.92772 -0.0126,-14.4869 -20.45298,-19.36138 -26.62733,-6.34991 -3.1339,6.60423 -1.10037,14.41939 4.75658,18.28022 3.85814,2.54324 11.56373,2.54197 15.73696,-0.003 z"
   id="path4"
   transform="matrix(0.3736203,-0.44526333,0.44526333,0.3736203,-91.883119,270.24756)" /><path
   d="m 216.03578,50.484818 c 4.87747,-0.03641 8.87563,-4.105205 8.91205,-9.069466 0.0364,-4.964262 -3.90249,-8.973793 -8.77997,-8.937378 -4.87746,0.03641 -8.87563,4.105204 -8.91204,9.069465 -0.0364,4.964263 3.9025,8.973794 8.77996,8.937379 z"
   id="path2"
   style="display:inline;fill:#ff08e6;fill-opacity:0.976945;stroke:none;stroke-width:0;stroke-dasharray:none;paint-order:stroke fill markers"
   inkscape:highlight-color="#aaaaaa" />
</g><text
           xml:space="preserve"
           style="font-style:normal;font-variant:normal;font-weight:normal;font-stretch:normal;font-size:337.569px;font-family:'Linux Biolinum G';-inkscape-font-specification:'Linux Biolinum G';fill:#ff9b01;fill-opacity:0.910663;stroke:#160921;stroke-width:0;stroke-linecap:round;stroke-miterlimit:0.8;stroke-dasharray:none;stroke-opacity:1;paint-order:stroke fill markers"
           x="256.17505"
           y="470.20749"
           id="text5"
           transform="matrix(1.0740809,0.03824108,-0.02881478,0.93000266,0,0)"><tspan
             sodipodi:role="line"
             id="tspan5"
             style="font-style:normal;font-variant:normal;font-weight:normal;font-stretch:normal;font-family:'Linux Biolinum G';-inkscape-font-specification:'Linux Biolinum G';fill:#ff9b01;fill-opacity:0.910663;stroke-width:0"
             x="256.17505"
             y="470.20749">S</tspan></text></g><text
         xml:space="preserve"
         style="font-size:78.7065px;fill:#ff9b01;fill-opacity:1;stroke-width:6.55892"
         x="147.06964"
         y="449.99631"
         id="text1"
         transform="scale(1.0525949,0.95003312)"><tspan
           id="tspan1"
           x="147.06964"
           y="449.99631"
           style="font-style:normal;font-variant:normal;font-weight:normal;font-stretch:normal;font-family:'Linux Biolinum G';-inkscape-font-specification:'Linux Biolinum G';fill:#ff9b01;fill-opacity:1;stroke-width:6.55892"
           sodipodi:role="line">OUROBOROS    TATION</tspan></text></g></g></svg>
