<svg width="1001" height="252" viewBox="0 0 1001 252" fill="none" xmlns="http://www.w3.org/2000/svg">
<g clip-path="url(#clip0_235_486)">
<path d="M39.3765 67.1025L37.8003 74.8458L999.117 8.81591L1000.78 0.957458L39.3765 67.1025Z" fill="#FFFC00"/>
<path d="M0.0712891 251.687L959.839 185.832L961.504 177.974L1.62373 243.959L0.0712891 251.687Z" fill="#FFFC00"/>
<path fill-rule="evenodd" clip-rule="evenodd" d="M9.52148 210.625L30.1699 112.246L13.7782 103.782L77.7719 99.6371L85.8385 107.27L66.2849 200.063L59.1145 207.177L9.52148 210.625ZM33.3506 189.313L48.0254 188.329L52.2255 167.785L62.2593 120.329L47.5731 121.335L33.3506 189.313Z" fill="white"/>
<path d="M133.422 95.9164L149.452 94.7939L132.183 182.975L116.153 184.097L133.422 95.9164ZM92.7769 204.995L112.402 203.626L128.431 202.504L148.057 201.129L170.678 93.3094L115.4 97.1755L92.7769 204.995Z" fill="white"/>
<path d="M221.609 129.35L206.927 130.374L211.123 109.853L225.803 108.824L221.609 129.35ZM195.691 91.3062L173.072 199.172L192.828 197.796L202.046 154.089L207.349 196.784L228.368 195.319L222.561 148.916L237.037 147.906L249.622 87.5343L195.691 91.3062Z" fill="white"/>
<path d="M228.368 195.319L207.349 196.784L202.046 154.089L192.828 197.796L173.072 199.172L195.691 91.3062L211.123 109.853L206.927 130.374L221.609 129.35L225.803 108.824L211.123 109.853L195.691 91.3062L249.622 87.5343L237.037 147.906L222.561 148.916L228.368 195.319Z" fill="white"/>
<path d="M311.566 189.338L290.546 190.802L285.244 148.107L276.025 191.814L256.27 193.191L278.897 85.3859L298.502 84.0131L289.237 128.223L312.239 83.0512L334.305 81.5062L333.852 83.6619L305.34 139.596L311.566 189.338Z" fill="white"/>
<path d="M411.082 115.762L375.096 118.277L379.463 97.4881L395.722 96.3498L392.862 110.104L412.588 108.727L419.663 74.9491L363.952 78.8398L351.308 139.666L387.293 137.152L381.418 164.673L365.307 165.801L368.923 148.835L349.048 150.222L341.217 187.215L396.928 183.324L411.082 115.762Z" fill="#D5D5D5"/>
<path d="M439.393 93.3361L458.364 92.0116L439.845 180.355L459.57 178.972L478.091 90.6281L497.061 89.3037L501.277 69.2768L443.61 73.3108L439.393 93.3361Z" fill="#D5D5D5"/>
<path d="M536.51 106.716L540.725 86.2418L556.836 85.1136L552.618 105.59L536.51 106.716ZM558.038 172.078L580.778 63.7108L525.216 67.5995L502.48 175.967L522.204 174.583L532.292 126.89L548.403 125.761L538.315 173.458L558.038 172.078Z" fill="#D5D5D5"/>
<path d="M623.191 167.684L641.712 79.3405L660.683 78.0086L664.901 57.9871L607.233 62.0211L603.018 82.0427L621.988 80.7183L603.469 169.062L623.191 167.684Z" fill="#D5D5D5"/>
<path d="M666.072 164.719L685.796 163.343L708.532 54.976L688.808 56.3595L666.072 164.719Z" fill="#D5D5D5"/>
<path d="M750.511 71.8982L766.623 70.7703L752.316 139.094L736.207 140.222L750.511 71.8982ZM712.267 161.618L767.825 157.738L790.561 49.3702L735.001 53.2506L712.267 161.618Z" fill="#D5D5D5"/>
<path d="M814.05 154.685L824.436 105.461L833.469 153.323L850.635 152.123L873.374 43.7552L853.65 45.1389L843.258 95.1111L834.225 46.4951L817.06 47.6956L794.329 156.063L814.05 154.685Z" fill="#D5D5D5"/>
<path d="M901.388 52.9128L901.845 50.747L917.699 49.6377L898.491 141.396L896.358 141.545L915.109 51.9543L901.388 52.9128ZM905.046 149.016L927.607 40.8656L895.445 43.1142L891.483 61.9929L905.202 61.0332L886.605 150.31L905.046 149.016Z" fill="#C3C100"/>
<path d="M980.953 45.2041L970.051 97.2906L984.821 96.2769L984.337 98.6019L969.564 99.6158L961.747 136.96L959.423 137.12L967.244 99.7761L932.184 102.204L980.953 45.2041ZM922.427 110.966L957.487 108.538L949.704 145.883L968.149 144.593L975.933 107.27L990.813 106.249L994.719 87.5042L979.843 88.5251L990.706 36.4417L976.649 37.4767L925.16 97.9379L922.427 110.966Z" fill="#C3C100"/>
<path d="M976.885 53.6221L937.188 99.5508L967.749 97.4535L976.885 53.6221ZM965.346 76.0626L962.174 91.283L951.336 92.0268L965.346 76.0626Z" fill="#C3C100"/>
</g>
<defs>
<clipPath id="clip0_235_486">
<rect width="1000.71" height="250.73" fill="white" transform="translate(0.0712891 0.957458)"/>
</clipPath>
</defs>
</svg>
