<svg width="257" height="256" viewBox="0 0 257 256" fill="none" xmlns="http://www.w3.org/2000/svg">
<path d="M158.775 6.37476L180.907 28.0544L210.708 33.4734L211.621 33.6394L211.879 34.531L220 62.5007L244.39 82.3738L245.095 82.949L244.912 83.8406L239.048 112.252L251.235 140.236L251.583 141.033L251.063 141.731L233.899 164.764L231.186 196.427L231.111 197.298L230.317 197.662L202.754 210.312L186.49 235.613L186.015 236.352L185.137 236.3L155.346 234.493L129.616 249.842L128.84 250.304L128.069 249.836L102.8 234.494L72.0962 236.3L71.2212 236.351L70.7466 235.613L54.48 210.308L27.3696 197.658L26.5591 197.279L26.5063 196.386L24.6997 165.67L6.63818 141.738L6.11475 141.045L6.45557 140.247L18.1968 112.698L12.7769 82.8884L12.6147 81.9939L13.3315 81.4363L37.6997 62.4822L45.8159 34.531L46.0747 33.6394L46.9878 33.4734L76.7798 28.0554L98.4507 6.3855L99.0923 5.7439L99.9585 6.0144L128.844 15.0408L157.272 6.01636L158.131 5.7439L158.775 6.37476Z" fill="white" stroke="white" stroke-width="3"/>
<path d="M80.1066 33.1119L101.192 12.0299L129.306 20.8141L156.981 12.0299L178.505 33.1119L207.498 38.3824L215.405 65.6133L239.126 84.9384L233.415 112.608L245.276 139.839L228.583 162.239L225.948 192.984L199.152 205.281L183.337 229.877L154.345 228.12L129.306 243.053L104.706 228.12L74.8352 229.877L59.0211 205.281L32.6643 192.984L30.9072 163.117L13.3359 139.839L24.7572 113.048L19.4859 84.06L43.207 65.6133L51.1141 38.3824L80.1066 33.1119Z" fill="#092337"/>
<path d="M93.8442 60.9248L108.846 45.95L128.848 52.1895L148.537 45.95L163.851 60.9248L184.478 64.6686L190.104 84.0111L206.981 97.7381L202.918 117.393L211.356 136.735L199.48 152.646L197.605 174.484L178.54 183.22L167.289 200.69L146.662 199.443L128.848 210.05L111.346 199.443L90.0938 200.69L78.8426 183.22L60.0907 174.484L58.8406 153.27L46.3394 136.735L54.4652 117.705L50.7148 97.1142L67.5915 84.0111L73.2171 64.6686L93.8442 60.9248Z" fill="white"/>
<path d="M124.597 51.1176V75.6195H101.678V205.799H79.9268V75.6195H57.0078V51.1176H124.597Z" fill="#092337" stroke="white" stroke-width="8"/>
<path d="M164.553 51.1182C171.527 51.0327 180.292 50.9798 187.32 53.457C190.933 54.7303 194.352 56.7537 196.851 60.0029C199.377 63.2879 200.688 67.4682 200.688 72.5361V101.288H178.937V80.3281C178.937 81.7391 179.18 75.6192 164.602 75.6191C157.307 75.6191 154.322 77.2396 153.174 78.2666C152.127 79.2032 152.1 80.1057 152.1 80.3281V176.011C152.115 176.063 152.25 176.791 153.174 177.618C154.362 178.681 157.385 180.381 164.602 180.381C178.286 180.381 178.915 174.999 178.937 175.836V146.21H167.019V121.708H200.688V178.88C200.688 187.083 199.891 194.655 193.839 199.62C190.913 202.021 187.088 203.53 182.382 204.462C177.674 205.394 171.821 205.799 164.602 205.799C150.421 205.799 141.177 204.057 135.696 199.169C129.977 194.067 129.432 186.538 129.432 178.88V72.5361L129.446 71.6016C129.593 66.9829 130.843 63.1445 133.145 60.085C135.579 56.8486 138.919 54.8476 142.445 53.5908C149.264 51.1608 157.834 51.2005 164.553 51.1182Z" fill="#092337" stroke="white" stroke-width="8"/>
</svg>
